<svg width="300" height="276" viewBox="0 0 300 276" fill="none" xmlns="http://www.w3.org/2000/svg">
<path d="M227.303 129.698C220.744 121.779 211.999 115.921 202.105 112.884C202.105 112.667 202.105 112.45 202.105 112.287C202.105 83.4317 178.602 60.0542 149.523 60C120.444 60 96.8854 83.3232 96.8308 112.179V112.233C96.8308 112.45 96.8308 112.721 96.8308 112.938C69.1183 121.617 53.7043 150.96 62.4498 178.46C71.1954 205.96 100.766 221.255 128.479 212.577C136.459 210.082 143.674 205.743 149.632 199.939C170.239 220.279 203.526 220.171 224.024 199.722C243.155 180.738 244.521 150.418 227.303 129.698ZM186.582 201.892C164.827 201.837 147.227 184.372 147.227 162.839C147.227 159.205 144.275 156.276 140.613 156.276C136.951 156.276 133.999 159.205 133.999 162.839C133.999 172.222 136.514 181.497 141.378 189.579C126.511 205.309 101.586 206.068 85.7348 191.261C69.8835 176.507 69.1183 151.774 84.0404 136.044C94.863 124.654 111.48 120.749 126.292 126.118L126.456 126.173C127.932 126.661 130.118 127.691 130.774 128.234C133.562 130.62 137.716 130.295 140.121 127.529C142.526 124.762 142.198 120.64 139.411 118.254C136.514 115.813 131.922 114.131 130.829 113.752C125.035 111.636 118.859 110.552 112.682 110.552C111.807 110.552 110.988 110.552 110.168 110.606C111.097 89.0726 129.463 72.3667 151.217 73.2888C172.917 74.2109 189.752 92.4355 188.823 114.023C188.276 126.064 182.209 137.129 172.37 144.126C169.364 146.242 168.708 150.364 170.84 153.293C172.972 156.276 177.126 156.927 180.077 154.811C189.916 147.814 197.077 137.672 200.301 126.118C220.69 133.604 231.129 156.059 223.641 176.29C217.847 191.695 203.089 201.892 186.582 201.892Z" fill="#F3702A"/>
</svg>
