<svg xmlns="http://www.w3.org/2000/svg" width="16" height="16" fill="none"><path fill="#AE7A29" d="M6.742 9.327h1.654l-2.34 2.639c-.346.394-.057 1 .478 1h2.724a.62.62 0 0 0 .63-.606.62.62 0 0 0-.63-.606H7.604l2.34-2.64c.346-.394.057-1-.478-1H6.742a.62.62 0 0 0-.63.606.62.62 0 0 0 .63.607Zm7.11-2.778a.651.651 0 0 1-.888.079l-1.931-1.553a.592.592 0 0 1-.076-.856.65.65 0 0 1 .887-.079l1.932 1.553c.264.219.302.6.075.856Zm-11.703 0c.22.26.616.29.88.079l1.932-1.553c.27-.219.308-.601.082-.856a.638.638 0 0 0-.88-.079L2.223 5.693a.592.592 0 0 0-.075.856ZM8 6.294c2.429 0 4.404 1.905 4.404 4.246 0 2.342-1.975 4.247-4.404 4.247s-4.404-1.905-4.404-4.247C3.596 8.2 5.57 6.294 8 6.294ZM8 5.08c-3.127 0-5.663 2.444-5.663 5.46C2.337 13.554 4.873 16 8 16c3.127 0 5.662-2.445 5.662-5.46S11.127 5.08 8 5.08Z"/></svg>