<svg xmlns="http://www.w3.org/2000/svg"
     viewBox="0 0 24 24" width="16" height="16">
  <title>message-warning</title>
  <g>
    <path d="M12,14a1,1,0,0,1-1-1V9a1,1,0,1,1,2,0v4A1,1,0,0,1,12,14Z" style="fill:#1d1d1b"/>
    <path d="M12,5a2,2,0,0,1,1.62,1.12l5.63,10.35A3.33,3.33,0,0,1,19.67,18a1.17,1.17,0,0,1-1.22,1.11H5.51A1.16,1.16,0,0,1,4.3,18a2.1,2.1,0,0,1,.41-1.48c.55-.83,5.67-10.35,5.67-10.35A1.84,1.84,0,0,1,12,5m0-2A3.8,3.8,0,0,0,8.58,5.24C6.14,9.77,3.39,14.84,3,15.38a4.19,4.19,0,0,0-.74,2.74,3.18,3.18,0,0,0,3.21,2.94H18.45a3.18,3.18,0,0,0,3.22-3A5.06,5.06,0,0,0,21,15.49L15.39,5.21A3.9,3.9,0,0,0,12,3Z" style="fill:#1d1d1b"/>
    <circle cx="11.99" cy="16.01" r="1" style="fill:#1d1d1b"/>
  </g>
</svg>
