<svg width="16" height="16" viewBox="0 0 16 16" fill="none" xmlns="http://www.w3.org/2000/svg">
  <g clip-path="url(#clip0_6832_41924)">
    <path d="M8.09449 14.969C4.18253 14.969 1 11.8362 1 7.98449C1 4.13283 4.18253 1 8.09449 1C12.0064 1 15.1889 4.13283 15.1889 7.98449C15.1889 11.8362 12.0064 14.969 8.09449 14.969ZM8.09449 2.26601C4.89376 2.26601 2.28825 4.83024 2.28825 7.98095C2.28825 11.1317 4.89376 13.6958 8.09449 13.6958C11.2951 13.6958 13.9007 11.1317 13.9007 7.98095C13.9007 4.83024 11.2951 2.26601 8.09449 2.26601Z" fill="#CB2029"/>
    <path d="M13.0628 7.60906C12.8777 7.24426 12.6455 6.78652 12.1882 6.78652C11.7346 6.78652 11.5024 7.24072 11.3137 7.60906C11.1395 7.94878 11.0415 8.12759 10.8238 8.12759C10.6061 8.12759 10.5081 7.94878 10.3339 7.60906C10.1489 7.24426 9.91653 6.78652 9.45934 6.78652C9.00205 6.78652 8.7735 7.24072 8.58478 7.60906C8.41062 7.94878 8.31262 8.12759 8.09485 8.12759C7.87718 8.12759 7.77918 7.94878 7.60493 7.60906C7.41989 7.24426 7.18765 6.78652 6.73037 6.78652C6.27317 6.78652 6.04453 7.24072 5.85581 7.60906C5.68165 7.94878 5.58365 8.12759 5.36597 8.12759C5.14821 8.12759 5.05021 7.94878 4.87605 7.60906C4.69102 7.24426 4.45873 6.78652 4.00149 6.78652C3.54788 6.78652 3.31563 7.21919 3.13056 7.58399C3.13056 7.58399 2.98903 7.89518 2.92735 8.04173C2.86565 8.18838 2.62615 8.74634 2.84388 9.01456C2.96726 9.16475 3.14507 8.95014 3.24668 8.79277C3.32289 8.6712 3.50434 8.32076 3.50434 8.32076C3.68941 7.9953 3.78739 7.82004 4.00149 7.82004C4.21923 7.82004 4.3172 7.99885 4.4914 8.33857C4.67645 8.70337 4.90869 9.16111 5.36597 9.16111C5.81957 9.16111 6.05181 8.707 6.24054 8.33857C6.41469 7.99885 6.5127 7.82004 6.73037 7.82004C6.94813 7.82004 7.04614 7.99885 7.22029 8.33857C7.40542 8.70337 7.63766 9.16111 8.09485 9.16111C8.54845 9.16111 8.78069 8.707 8.96941 8.33857C9.14366 7.99885 9.24157 7.82004 9.45934 7.82004C9.6771 7.82004 9.77501 7.99885 9.94926 8.33857C10.1343 8.70337 10.3665 9.16111 10.8238 9.16111C11.281 9.16111 11.5097 8.707 11.6984 8.33857C11.8725 7.99885 11.9705 7.82004 12.1882 7.82004C12.406 7.82004 12.504 7.99885 12.6781 8.33857C12.6781 8.33857 12.758 8.49239 12.8741 8.69264C12.9249 8.77487 13.1136 9.08961 13.2805 9.07888C13.4293 9.06816 13.4837 8.60324 13.3169 8.19556C13.2043 7.92371 13.0628 7.60906 13.0628 7.60906Z" fill="#CB2029"/>
  </g>
  <defs>
    <clipPath id="clip0_6832_41924">
      <rect width="14.2059" height="14" fill="white" transform="translate(1 1)"/>
    </clipPath>
  </defs>
</svg>
